<svg width="194" height="25" viewBox="0 0 194 25" fill="none" xmlns="http://www.w3.org/2000/svg">
<path d="M123.598 3L120.753 15.8358H120.41L121.201 3H116.037L112.506 15.8358H112.137L113.639 3H107.658L107.5 23H114.087L116.932 11.9303H117.249L116.326 23H122.887L129.5 3H123.598Z" fill="white"/>
<path d="M137.36 7.67568C136.568 7.24324 135.622 7 134.497 7C133.372 7 132.324 7.21622 131.378 7.67568C130.457 8.10811 129.69 8.72973 129.102 9.54054C128.514 10.3514 128.131 11.2703 128.003 12.3243L127.85 13.3243H132.861L132.963 12.5676C132.963 12.3514 133.065 12.1892 133.219 12.0541C133.372 11.9459 133.551 11.8649 133.781 11.8649C133.986 11.8649 134.139 11.9189 134.216 12.0541C134.292 12.1892 134.343 12.3514 134.318 12.5676L134.062 14.3243H132.017C130.56 14.3243 129.358 14.7297 128.387 15.5135C127.415 16.2973 126.827 17.4324 126.597 18.8919C126.367 20.4865 126.546 21.7297 127.134 22.6486C127.722 23.5405 128.617 24 129.818 24C130.457 24 131.02 23.8649 131.531 23.5946C132.043 23.3243 132.452 22.9459 132.733 22.4324H133.014L132.835 23.5946H137.718L139.431 12.2973C139.584 11.2703 139.482 10.3243 139.124 9.51351C138.766 8.7027 138.204 8.08108 137.411 7.62162L137.36 7.67568ZM132.426 20.027C132.17 20.027 131.966 19.9189 131.838 19.7297C131.71 19.5135 131.659 19.2432 131.736 18.8919C131.812 18.4054 132.017 18.0541 132.375 17.7838C132.707 17.5135 133.116 17.3784 133.602 17.3784L133.295 19.4595C133.295 19.4595 133.244 19.6486 133.167 19.7027C133.091 19.8108 132.988 19.8649 132.861 19.9189C132.733 19.973 132.605 20 132.426 20V20.027Z" fill="white"/>
<path d="M158.5 3H152.344L148.37 10.4129H148.032L149.279 3H143.851L140.5 23H145.929L146.89 17.2289L148.214 16.1343L149.279 23H155.253L152.318 11.7313L158.5 3Z" fill="white"/>
<path d="M169.073 9.56757C168.715 8.75676 168.153 8.13514 167.36 7.67568C166.568 7.24324 165.622 7 164.497 7C163.372 7 162.324 7.21622 161.378 7.67568C160.457 8.10811 159.69 8.72973 159.102 9.54054C158.514 10.3514 158.131 11.2703 158.003 12.3243L157.85 13.3243H162.861L162.963 12.5676C162.963 12.3514 163.065 12.1892 163.219 12.0541C163.372 11.9459 163.551 11.8649 163.781 11.8649C163.986 11.8649 164.139 11.9189 164.216 12.0541C164.292 12.1892 164.343 12.3514 164.318 12.5676L164.062 14.3243H162.017C160.56 14.3243 159.358 14.7297 158.387 15.5135C157.415 16.2973 156.827 17.4324 156.597 18.8919C156.367 20.4865 156.546 21.7297 157.134 22.6486C157.722 23.5405 158.617 24 159.818 24C160.457 24 161.02 23.8649 161.531 23.5946C162.043 23.3243 162.452 22.9459 162.733 22.4324H163.014L162.835 23.5946H167.718L169.431 12.2973C169.584 11.2703 169.482 10.3243 169.124 9.51351L169.073 9.56757ZM162.426 20.027C162.17 20.027 161.966 19.9189 161.838 19.7297C161.71 19.5135 161.659 19.2432 161.736 18.8919C161.812 18.4054 162.017 18.0541 162.375 17.7838C162.707 17.5135 163.116 17.3784 163.602 17.3784L163.295 19.4595C163.295 19.4595 163.244 19.6486 163.167 19.7027C163.091 19.8108 162.988 19.8649 162.861 19.9189C162.733 19.973 162.605 20 162.426 20V20.027Z" fill="white"/>
<path d="M66.5719 3L63.7263 15.8358H63.3838L64.1743 3H59.0365L55.4796 15.8358H55.1371L56.6126 3H50.6581L50.5 23H57.0605L59.906 11.9303H60.2222L59.3 23H65.8868L72.5 3H66.5719Z" fill="white"/>
<path d="M13.3424 11.863C12.6656 11.3606 11.8067 10.8846 10.7395 10.3822C10.1668 10.1178 9.75035 9.90625 9.438 9.72115C9.12565 9.53606 8.89138 9.32452 8.70918 9.0601C8.52697 8.79567 8.47491 8.50481 8.50094 8.16106C8.50094 7.94952 8.60506 7.76442 8.73521 7.57933C8.86535 7.42067 9.04756 7.28846 9.25579 7.20914C9.46403 7.12981 9.69829 7.07692 9.93256 7.07692C10.323 7.07692 10.6353 7.18269 10.8436 7.36779C11.0518 7.55288 11.1299 7.81731 11.1039 8.16106L10.9737 8.82212H16.2837L16.4139 8.16106C16.5961 6.94471 16.4919 5.86058 16.0755 4.9351C15.659 4.00962 14.9822 3.29567 14.0192 2.76683C13.0821 2.26442 11.9368 2 10.6093 2C9.28182 2 8.1105 2.23798 7.0433 2.71394C5.9761 3.1899 5.0911 3.8774 4.41434 4.75C3.73758 5.6226 3.29508 6.65385 3.11287 7.84375C2.85258 9.3774 2.93067 10.6202 3.32111 11.5986C3.71155 12.5769 4.25816 13.3173 4.93493 13.8197C5.61169 14.3221 6.47066 14.8245 7.4858 15.3534C8.05844 15.6178 8.52697 15.8558 8.83932 16.0673C9.15168 16.2788 9.41197 16.4904 9.59418 16.7548C9.77638 17.0192 9.82844 17.3365 9.77638 17.6803C9.72432 17.9447 9.64623 18.1562 9.51609 18.3413C9.38594 18.5264 9.20374 18.6851 8.9955 18.7909C8.78727 18.8966 8.52697 18.9495 8.24065 18.9495C7.82418 18.9495 7.51183 18.8173 7.27757 18.5793C7.0433 18.3413 6.96521 18.024 6.99124 17.601L7.12139 16.8077H1.70729L1.60317 17.4952C1.39494 18.7909 1.49906 19.9279 1.94155 20.9062C2.38405 21.8846 3.06081 22.6514 4.04993 23.1803C5.03904 23.7091 6.21036 24 7.58992 24C8.96947 24 10.1408 23.762 11.208 23.2596C12.3012 22.7572 13.1862 22.0697 13.889 21.1442C14.5918 20.2452 15.0343 19.1611 15.2165 17.9447C15.4768 16.3582 15.3987 15.0625 14.9822 14.0577C14.5658 13.0529 14.0452 12.3125 13.3684 11.8101L13.3424 11.863Z" fill="white"/>
<path d="M26.1692 10.5373H23.6468L24.8338 3H19.6654L16.5 23H21.6685L22.8802 15.3134H25.4026L24.1909 23H29.3099L32.5 3H27.3563L26.1692 10.5373Z" fill="white"/>
<path d="M45.8436 2.84514C44.8512 2.29052 43.6238 2 42.1875 2C40.7512 2 39.4455 2.29052 38.2704 2.84514C37.0952 3.39976 36.129 4.19208 35.3978 5.22209C34.6404 6.2521 34.1704 7.44058 33.9615 8.78752L32.6035 17.2125C32.3946 18.5594 32.4991 19.7479 32.943 20.7779C33.3869 21.8079 34.092 22.6002 35.1105 23.1549C36.129 23.7095 37.3302 24 38.7665 24C40.2028 24 41.5086 23.7095 42.7098 23.1549C43.9111 22.6002 44.8512 21.8079 45.6085 20.7779C46.3659 19.7479 46.8359 18.5594 47.0448 17.2125L48.4028 8.78752C48.6117 7.44058 48.4811 6.2521 48.0372 5.22209C47.5933 4.19208 46.862 3.39976 45.8697 2.84514H45.8436ZM41.613 17.1333C41.5608 17.503 41.4302 17.8199 41.2474 18.084C41.0646 18.3481 40.8296 18.5594 40.5162 18.7179C40.229 18.8764 39.8895 18.9292 39.55 18.9292C39.2105 18.9292 38.8971 18.8499 38.6621 18.7179C38.4271 18.5594 38.2443 18.3481 38.1398 18.084C38.0353 17.8199 38.0092 17.503 38.0876 17.1333L39.3411 8.89316C39.3933 8.52341 39.5239 8.20648 39.7067 7.94238C39.8895 7.67827 40.1245 7.46699 40.4379 7.30852C40.7251 7.15006 41.0646 7.09724 41.4041 7.09724C41.7436 7.09724 42.057 7.17647 42.3181 7.30852C42.5793 7.46699 42.736 7.67827 42.8404 7.94238C42.9449 8.20648 42.971 8.52341 42.8926 8.89316L41.613 17.1333Z" fill="white"/>
<path d="M99.1274 9C97.4909 9 96.9027 7.28832 96.4169 5.88321C96.289 5.5 96.0845 4.93796 95.9055 4.58029C95.7265 4.93796 95.5475 5.5 95.3941 5.88321C94.9082 7.26277 94.3201 9 92.6836 9C91.047 9 90.4589 7.26277 89.9986 5.88321C89.8708 5.5 89.6662 4.93796 89.5128 4.60584C89.3338 4.9635 89.1548 5.52555 89.0014 5.88321C88.5155 7.26277 87.9274 9 86.2909 9C84.6543 9 84.0662 7.28832 83.6059 5.88321C83.4781 5.5 83.2735 4.93796 83.1201 4.58029C82.9411 4.93796 82.7621 5.5 82.6342 5.85766C82.1484 7.23723 81.5603 8.97445 79.9493 8.97445C78.3384 8.97445 77.7247 7.23723 77.2388 5.85766C77.0598 5.32117 76.753 4.42701 76.5484 4.24818C75.9091 4.24818 75.5 3.76277 75.5 3.12409C75.5 2.4854 76.1137 2 76.753 2C78.3895 2 78.9776 3.71168 79.4379 5.11679C79.5658 5.5 79.7703 6.06204 79.9237 6.41971C80.1027 6.06204 80.2817 5.5 80.4096 5.14234C80.8954 3.76277 81.4836 2.02555 83.0945 2.02555C84.7055 2.02555 85.3192 3.76277 85.805 5.14234C85.9329 5.52555 86.1374 6.08759 86.2909 6.41971C86.4699 6.06204 86.6489 5.5 86.8023 5.14234C87.2881 3.76277 87.8763 2.02555 89.5128 2.02555C91.1493 2.02555 91.7374 3.76277 92.1977 5.14234C92.3256 5.52555 92.5301 6.08759 92.6836 6.41971C92.8626 6.06204 93.0416 5.5 93.195 5.14234C93.6808 3.76277 94.2689 2.02555 95.9055 2.02555C97.542 2.02555 98.1301 3.76277 98.616 5.14234C98.7438 5.52555 98.9484 6.08759 99.1274 6.44526C99.3064 6.08759 99.511 5.52555 99.6388 5.14234C100.125 3.76277 100.713 2.02555 102.349 2.02555C102.989 2.02555 103.5 2.5365 103.5 3.17518C103.5 3.81387 102.989 4.32482 102.349 4.32482C102.349 4.45255 102.017 5.34672 101.838 5.85766C101.352 7.23723 100.764 8.97445 99.1274 8.97445V9Z" fill="white"/>
<path d="M99.1274 16C97.4909 16 96.9027 14.2883 96.4169 12.8832C96.289 12.5 96.0845 11.938 95.9055 11.5803C95.7265 11.938 95.5475 12.5 95.3941 12.8832C94.9082 14.2628 94.3201 16 92.6836 16C91.047 16 90.4589 14.2628 89.9986 12.8832C89.8708 12.5 89.6662 11.938 89.5128 11.6058C89.3338 11.9635 89.1548 12.5255 89.0014 12.8832C88.5155 14.2628 87.9274 16 86.2909 16C84.6543 16 84.0662 14.2883 83.6059 12.8832C83.4781 12.5 83.2735 11.938 83.1201 11.5803C82.9411 11.938 82.7621 12.5 82.6342 12.8577C82.1484 14.2372 81.5603 15.9745 79.9493 15.9745C78.3384 15.9745 77.7247 14.2372 77.2388 12.8577C77.0598 12.3212 76.753 11.427 76.5484 11.2482C75.9091 11.2482 75.5 10.7628 75.5 10.1241C75.5 9.4854 76.1137 9 76.753 9C78.3895 9 78.9776 10.7117 79.4379 12.1168C79.5658 12.5 79.7703 13.062 79.9237 13.4197C80.1027 13.062 80.2817 12.5 80.4096 12.1423C80.8954 10.7628 81.4836 9.02555 83.0945 9.02555C84.7055 9.02555 85.3192 10.7628 85.805 12.1423C85.9329 12.5255 86.1374 13.0876 86.2909 13.4197C86.4699 13.062 86.6489 12.5 86.8023 12.1423C87.2881 10.7628 87.8763 9.02555 89.5128 9.02555C91.1493 9.02555 91.7374 10.7628 92.1977 12.1423C92.3256 12.5255 92.5301 13.0876 92.6836 13.4197C92.8626 13.062 93.0416 12.5 93.195 12.1423C93.6808 10.7628 94.2689 9.02555 95.9055 9.02555C97.542 9.02555 98.1301 10.7628 98.616 12.1423C98.7438 12.5255 98.9484 13.0876 99.1274 13.4453C99.3064 13.0876 99.511 12.5255 99.6388 12.1423C100.125 10.7628 100.713 9.02555 102.349 9.02555C102.989 9.02555 103.5 9.5365 103.5 10.1752C103.5 10.8139 102.989 11.3248 102.349 11.3248C102.349 11.4526 102.017 12.3467 101.838 12.8577C101.352 14.2372 100.764 15.9745 99.1274 15.9745V16Z" fill="white"/>
<path d="M99.1274 23C97.4909 23 96.9027 21.2883 96.4169 19.8832C96.289 19.5 96.0845 18.938 95.9055 18.5803C95.7265 18.938 95.5475 19.5 95.3941 19.8832C94.9082 21.2628 94.3201 23 92.6836 23C91.047 23 90.4589 21.2628 89.9986 19.8832C89.8708 19.5 89.6662 18.938 89.5128 18.6058C89.3338 18.9635 89.1548 19.5255 89.0014 19.8832C88.5155 21.2628 87.9274 23 86.2909 23C84.6543 23 84.0662 21.2883 83.6059 19.8832C83.4781 19.5 83.2735 18.938 83.1201 18.5803C82.9411 18.938 82.7621 19.5 82.6342 19.8577C82.1484 21.2372 81.5603 22.9745 79.9493 22.9745C78.3384 22.9745 77.7247 21.2372 77.2388 19.8577C77.0598 19.3212 76.753 18.427 76.5484 18.2482C75.9091 18.2482 75.5 17.7628 75.5 17.1241C75.5 16.4854 76.1137 16 76.753 16C78.3895 16 78.9776 17.7117 79.4379 19.1168C79.5658 19.5 79.7703 20.062 79.9237 20.4197C80.1027 20.062 80.2817 19.5 80.4096 19.1423C80.8954 17.7628 81.4836 16.0255 83.0945 16.0255C84.7055 16.0255 85.3192 17.7628 85.805 19.1423C85.9329 19.5255 86.1374 20.0876 86.2909 20.4197C86.4699 20.062 86.6489 19.5 86.8023 19.1423C87.2881 17.7628 87.8763 16.0255 89.5128 16.0255C91.1493 16.0255 91.7374 17.7628 92.1977 19.1423C92.3256 19.5255 92.5301 20.0876 92.6836 20.4197C92.8626 20.062 93.0416 19.5 93.195 19.1423C93.6808 17.7628 94.2689 16.0255 95.9055 16.0255C97.542 16.0255 98.1301 17.7628 98.616 19.1423C98.7438 19.5255 98.9484 20.0876 99.1274 20.4453C99.3064 20.0876 99.511 19.5255 99.6388 19.1423C100.125 17.7628 100.713 16.0255 102.349 16.0255C102.989 16.0255 103.5 16.5365 103.5 17.1752C103.5 17.8139 102.989 18.3248 102.349 18.3248C102.349 18.4526 102.017 19.3467 101.838 19.8577C101.352 21.2372 100.764 22.9745 99.1274 22.9745V23Z" fill="white"/>
<path d="M187.992 5.44922L188.62 4.67067C188.28 4.39669 187.802 4.37486 187.438 4.61674C187.075 4.85861 186.91 5.30829 187.032 5.72759L187.992 5.44922ZM191.5 12.7744L192.5 12.7745V12.7744H191.5ZM182.095 22.1787L182.095 23.1787H182.095V22.1787ZM173.064 15.3965L173.692 14.6179C173.352 14.3439 172.874 14.3221 172.51 14.5641C172.147 14.806 171.982 15.2556 172.104 15.6749L173.064 15.3965ZM178.96 17.4766L178.96 18.4766H178.96V17.4766ZM188.365 8.07129H189.365V8.07127L188.365 8.07129ZM187.992 5.44922L187.365 6.22776C189.278 7.77025 190.5 10.1292 190.5 12.7744H191.5H192.5C192.5 9.49803 190.984 6.57608 188.62 4.67067L187.992 5.44922ZM191.5 12.7744L190.5 12.7744C190.5 17.416 186.737 21.1787 182.095 21.1787V22.1787V23.1787C187.841 23.1787 192.5 18.5207 192.5 12.7745L191.5 12.7744ZM182.095 22.1787L182.095 21.1787C178.269 21.1785 175.04 18.62 174.025 15.118L173.064 15.3965L172.104 15.6749C173.36 20.0076 177.354 23.1785 182.095 23.1787L182.095 22.1787ZM173.064 15.3965L172.437 16.1751C174.221 17.6126 176.49 18.4765 178.96 18.4766L178.96 17.4766L178.96 16.4766C176.964 16.4765 175.134 15.7802 173.692 14.6179L173.064 15.3965ZM178.96 17.4766V18.4766C184.706 18.4766 189.365 13.8177 189.365 8.07129H188.365H187.365C187.365 12.7131 183.602 16.4766 178.96 16.4766V17.4766ZM188.365 8.07129L189.365 8.07127C189.365 7.06402 189.219 6.091 188.953 5.17084L187.992 5.44922L187.032 5.72759C187.248 6.47235 187.365 7.2581 187.365 8.07131L188.365 8.07129Z" fill="white"/>
</svg>
